{"glyphs":{":":{"x_min":0,"x_max":161,"ha":161,"o":"m 110 239 b 109 246 107 250 100 254 b 93 257 85 257 79 254 b 67 247 67 238 67 225 b 66 213 65 202 64 190 b 64 172 110 172 110 190 b 110 206 112 223 110 239 z m 75 0 b 61 -5 57 -14 54 -28 b 52 -40 51 -53 50 -66 b 49 -87 103 -88 104 -66 b 105 -51 107 -34 105 -19 b 103 -5 89 6 75 0 z"},"$":{"x_min":0,"x_max":384,"ha":384,"o":"m 284 132 b 261 160 235 181 207 202 b 208 268 210 333 212 399 b 222 391 231 381 237 369 b 242 360 269 364 264 374 b 252 396 234 412 213 421 b 214 451 215 480 216 509 b 217 520 189 520 189 509 b 187 483 186 457 185 430 b 160 435 133 431 109 419 b 81 404 59 377 52 346 b 45 312 56 279 76 252 b 98 221 129 200 159 179 b 165 174 171 170 178 165 b 177 87 178 9 181 -69 b 114 -56 72 38 108 97 b 114 107 87 110 81 102 b 48 49 74 -28 121 -63 b 139 -76 160 -84 182 -88 b 183 -110 185 -131 186 -153 b 187 -164 216 -164 215 -153 b 214 -132 213 -111 211 -90 b 244 -89 276 -78 300 -57 b 362 -1 327 79 284 132 z m 179 223 b 154 241 131 262 115 287 b 92 323 85 373 123 402 b 142 416 164 419 185 413 b 182 350 180 286 179 223 z m 281 -5 b 275 -39 245 -64 211 -70 b 211 -70 211 -70 210 -70 b 207 0 206 71 206 141 b 219 129 232 116 243 102 b 267 73 287 35 281 -5 z"},"?":{"x_min":0,"x_max":329,"ha":329,"o":"m 279 351 b 277 403 243 451 188 452 b 136 453 83 422 60 374 b 36 324 56 261 112 244 b 122 241 143 253 126 258 b 60 279 71 364 112 403 b 135 425 177 446 208 430 b 238 416 237 379 233 351 b 222 286 194 223 173 161 b 162 130 153 99 146 67 b 138 33 131 -4 136 -38 b 139 -63 197 -64 200 -38 b 203 -5 205 27 211 60 b 218 94 228 127 238 161 b 256 221 281 287 279 351 z m 202 -116 b 202 -97 151 -96 152 -116 b 152 -139 153 -164 170 -182 b 175 -188 192 -188 196 -180 b 205 -161 201 -137 202 -116 z"},"<":{"x_min":0,"x_max":295,"ha":295,"o":"m 231 92 b 210 99 188 103 167 106 b 156 108 145 110 134 112 b 128 114 107 119 107 120 b 107 124 125 136 130 138 b 139 144 148 150 157 155 b 178 167 198 180 219 189 b 238 197 216 207 204 204 b 173 194 143 185 114 171 b 94 161 54 145 50 120 b 47 94 92 87 109 83 b 140 76 172 72 202 64 b 214 61 232 60 241 70 b 250 79 241 89 231 92 z"},"'":{"x_min":0,"x_max":173,"ha":173,"o":"m 68 429 b 63 416 59 403 55 389 b 52 377 47 365 52 353 b 55 345 72 345 78 349 b 100 366 110 397 121 421 b 131 442 75 450 68 429 z"},"=":{"x_min":0,"x_max":384,"ha":384,"o":"m 180 218 b 219 220 258 223 297 225 b 305 225 323 228 323 240 b 323 251 305 255 297 255 b 257 253 217 251 177 247 b 137 244 99 236 60 231 b 43 229 49 214 64 215 b 102 217 141 216 180 218 z m 333 152 b 328 164 309 164 299 163 b 259 159 219 155 179 150 b 142 146 99 143 65 129 b 53 125 57 114 68 113 b 108 110 150 117 189 121 b 230 125 272 129 314 132 b 323 133 337 141 333 152 z"},"a":{"x_min":0,"x_max":271,"ha":271,"o":"m 252 35 b 250 58 248 81 247 103 b 244 148 247 194 241 239 b 238 264 185 263 180 239 b 180 238 180 237 180 236 b 179 235 179 234 179 233 b 179 230 178 227 178 223 b 162 239 140 244 118 241 b 61 234 31 179 19 128 b 8 84 4 12 58 -7 b 104 -23 142 12 162 51 b 170 66 176 81 182 97 b 184 75 187 53 191 32 b 196 10 201 -14 218 -29 b 225 -35 240 -35 245 -27 b 257 -9 253 15 252 35 z m 148 84 b 139 63 129 41 114 24 b 109 20 105 15 99 12 b 93 8 88 5 82 10 b 76 15 73 28 71 35 b 60 84 78 137 100 179 b 108 194 125 230 147 216 b 159 209 167 196 173 182 b 168 149 160 116 148 84 z"},"L":{"x_min":0,"x_max":188,"ha":188,"o":"m 363 -58 b 371 -59 388 -59 389 -48 b 391 -38 376 -35 369 -35 b 308 -30 251 -50 193 -66 b 160 -75 127 -85 95 -96 b 125 19 125 140 116 257 b 111 328 103 399 93 469 b 83 539 73 609 54 678 b 51 691 10 690 11 674 b 18 566 34 458 42 350 b 51 244 57 138 48 32 b 43 -19 36 -70 22 -120 b 20 -120 17 -121 15 -122 b -35 -140 -92 -158 -134 -191 b -152 -204 -167 -225 -165 -248 b -163 -270 -144 -284 -124 -291 b -74 -310 -20 -288 15 -251 b 51 -214 74 -166 89 -117 b 118 -107 147 -98 177 -90 b 236 -73 301 -51 363 -58 z m -40 -244 b -54 -259 -74 -274 -97 -273 b -126 -272 -141 -244 -126 -219 b -114 -198 -87 -186 -66 -176 b -41 -163 -15 -153 11 -143 b 12 -143 14 -142 15 -142 b 3 -178 -14 -216 -40 -244 z"},"3":{"x_min":0,"x_max":440,"ha":440,"o":"m 163 -93 b 105 -57 108 18 104 77 b 103 98 55 98 52 77 b 44 11 58 -69 116 -110 b 173 -151 254 -142 309 -102 b 414 -27 418 134 316 214 b 292 233 260 249 227 258 b 245 270 262 285 278 301 b 293 317 306 335 307 358 b 307 380 294 398 276 408 b 236 429 182 419 143 402 b 102 385 61 357 50 311 b 48 302 75 301 77 311 b 86 347 120 371 151 386 b 169 394 188 400 208 402 b 224 404 253 404 264 389 b 289 359 233 318 213 302 b 192 286 170 272 146 262 b 132 259 119 254 107 247 b 97 240 95 230 105 223 b 115 214 134 214 146 218 b 154 221 162 224 170 227 b 205 235 246 215 273 192 b 308 162 331 120 334 73 b 337 26 322 -23 290 -59 b 259 -93 208 -119 163 -93 z"},";":{"x_min":0,"x_max":187,"ha":187,"o":"m 127 266 b 124 275 100 274 99 264 b 97 244 94 224 92 204 b 89 188 135 186 136 204 b 138 226 135 246 127 266 z m 97 2 b 88 -51 71 -100 51 -150 b 42 -171 92 -174 101 -158 b 114 -131 123 -104 130 -75 b 136 -48 140 -21 126 5 b 121 13 99 13 97 2 z"},"J":{"x_min":0,"x_max":753,"ha":753,"o":"m 747 672 b 763 675 779 679 795 682 b 809 684 832 692 845 685 b 855 679 871 679 881 685 b 889 690 891 700 881 705 b 852 719 823 715 793 709 b 761 703 729 694 697 685 b 682 681 668 676 653 671 b 642 678 620 676 620 664 b 620 663 620 662 620 660 b 583 647 546 633 510 618 b 393 570 278 519 168 455 b 106 419 46 380 -11 336 b -17 332 -10 327 -6 325 b 1 322 9 324 14 328 b 194 464 405 565 620 636 b 620 562 623 488 624 414 b 591 365 561 315 534 264 b 467 142 415 8 394 -130 b 388 -167 386 -205 389 -242 b 392 -269 398 -298 416 -319 b 462 -373 540 -334 577 -290 b 622 -236 642 -163 656 -95 b 672 -20 680 57 685 134 b 691 234 691 336 685 437 b 725 492 770 543 822 588 b 829 594 820 602 814 604 b 805 607 793 606 785 600 b 747 567 713 530 681 490 b 676 543 670 596 661 649 b 689 657 718 665 747 672 z m 624 232 b 621 161 617 90 608 19 b 599 -50 590 -120 566 -186 b 555 -216 542 -245 524 -272 b 512 -291 481 -332 455 -313 b 433 -297 426 -264 423 -239 b 418 -204 421 -168 425 -134 b 443 -3 492 121 555 236 b 577 275 600 314 625 352 b 625 312 625 272 624 232 z"},"V":{"x_min":0,"x_max":841,"ha":841,"o":"m 1090 762 b 1097 743 1081 718 1070 703 b 1061 691 1089 686 1096 695 b 1113 718 1135 756 1109 781 b 1085 804 1045 792 1019 778 b 947 740 896 663 855 595 b 758 436 707 256 657 78 b 643 31 630 -16 615 -62 b 602 -106 590 -150 571 -192 b 558 -221 531 -267 493 -248 b 457 -230 433 -186 414 -152 b 371 -73 343 16 319 102 b 294 190 273 279 247 367 b 233 416 217 465 196 512 b 177 555 157 605 121 637 b 93 661 48 675 14 655 b -13 640 -22 598 5 578 b 10 574 18 572 24 575 b 28 577 35 582 29 586 b 17 596 15 611 20 626 b 29 649 55 652 75 639 b 107 617 118 569 131 535 b 160 456 183 374 204 293 b 224 211 244 128 268 47 b 292 -31 319 -113 365 -181 b 402 -235 472 -306 544 -268 b 571 -254 588 -229 600 -201 b 617 -164 628 -123 640 -84 b 692 84 731 257 799 420 b 835 506 878 589 933 664 b 959 699 988 733 1025 757 b 1041 767 1079 791 1090 762 z"},"\"":{"x_min":0,"x_max":241,"ha":241,"o":"m 73 449 b 64 420 49 385 50 353 b 51 338 79 343 85 351 b 104 377 113 411 124 441 b 131 462 79 467 73 449 z m 144 425 b 136 401 129 374 131 349 b 132 337 155 340 160 347 b 175 368 184 393 190 417 b 196 438 149 441 144 425 z"},"7":{"x_min":0,"x_max":374,"ha":374,"o":"m 66 362 b 93 366 119 371 145 378 b 174 385 203 396 232 395 b 248 395 265 391 273 376 b 279 366 278 354 277 343 b 274 314 271 286 263 258 b 253 219 240 180 227 141 b 219 141 210 140 201 138 b 195 136 192 131 196 126 b 199 121 210 122 216 123 b 218 124 220 124 222 124 b 202 62 185 0 182 -66 b 181 -88 238 -90 243 -71 b 259 -7 269 59 285 123 b 295 123 304 123 314 124 b 330 125 324 141 310 140 b 303 140 296 139 289 139 b 304 194 319 249 319 305 b 318 331 315 361 300 383 b 288 402 265 409 243 411 b 214 414 186 406 158 399 b 125 390 93 382 59 377 b 41 375 53 360 66 362 z"},"S":{"x_min":0,"x_max":641,"ha":641,"o":"m 610 749 b 539 786 448 789 370 778 b 282 766 197 732 125 679 b 53 626 -22 544 1 446 b 21 362 106 312 174 269 b 253 219 336 172 411 116 b 448 88 483 58 515 25 b 549 -11 581 -55 580 -107 b 579 -161 531 -197 482 -206 b 437 -214 389 -202 353 -175 b 270 -112 266 7 314 93 b 319 103 292 106 286 97 b 245 24 240 -68 288 -139 b 330 -202 407 -234 482 -224 b 561 -213 636 -145 618 -59 b 608 -13 578 25 546 59 b 515 92 481 122 445 149 b 370 205 288 252 210 303 b 140 348 56 402 60 496 b 65 590 148 665 225 707 b 304 751 396 771 486 762 b 532 758 583 748 618 716 b 661 678 659 620 643 569 b 610 462 539 366 477 273 b 469 261 504 257 512 268 b 570 351 626 436 661 531 b 677 573 691 618 681 662 b 673 701 645 730 610 749 z"},"}":{"x_min":0,"x_max":360,"ha":360,"o":"m 308 141 b 263 217 266 308 237 389 b 224 422 203 458 175 480 b 151 498 114 510 89 491 b 79 483 103 477 110 481 b 124 492 147 474 157 465 b 168 454 176 442 182 428 b 194 396 198 362 201 328 b 206 272 209 212 230 158 b 214 154 200 145 192 127 b 175 90 187 44 187 4 b 187 -35 183 -78 167 -114 b 160 -128 151 -142 137 -150 b 118 -161 97 -157 77 -152 b 70 -150 57 -148 52 -155 b 47 -162 52 -167 58 -169 b 94 -182 134 -189 170 -174 b 203 -161 223 -130 234 -97 b 248 -58 252 -16 250 25 b 249 47 246 70 248 92 b 249 103 252 110 255 120 b 255 120 255 120 256 120 b 256 120 257 120 258 119 b 269 115 321 119 308 141 z"},"Z":{"x_min":0,"x_max":502,"ha":502,"o":"m 503 -87 b 438 -90 377 -109 316 -129 b 285 -140 254 -150 223 -159 b 197 -166 157 -179 132 -167 b 104 -153 110 -114 115 -90 b 122 -56 136 -24 153 6 b 182 59 219 108 258 154 b 333 244 417 330 469 437 b 492 486 514 544 500 600 b 485 656 433 685 380 697 b 309 714 233 708 163 691 b 100 676 32 654 -11 602 b -20 591 7 586 13 594 b 53 642 115 662 174 676 b 240 692 313 698 380 679 b 522 636 428 467 375 388 b 311 293 226 213 156 121 b 119 73 84 21 67 -38 b 53 -87 49 -156 103 -182 b 129 -194 160 -192 188 -187 b 222 -181 256 -170 289 -159 b 358 -136 428 -107 503 -104 b 521 -103 521 -86 503 -87 z"},"x":{"x_min":0,"x_max":192,"ha":192,"o":"m 166 37 b 154 57 141 78 130 99 b 124 110 118 122 113 133 b 133 168 156 201 181 233 b 190 244 163 249 156 241 b 135 217 116 191 99 164 b 90 186 82 207 74 229 b 66 249 4 248 8 224 b 17 178 36 135 60 95 b 43 62 29 28 16 -7 b 12 -18 40 -21 44 -11 b 54 16 65 42 77 68 b 89 51 101 34 114 18 b 129 0 148 -23 173 -23 b 179 -23 187 -21 188 -14 b 191 2 174 24 166 37 z"},")":{"x_min":0,"x_max":364,"ha":364,"o":"m 252 428 b 239 461 222 496 192 518 b 167 536 131 545 101 542 b 82 540 94 525 108 526 b 138 529 158 504 172 481 b 185 459 193 434 200 410 b 216 354 230 297 238 239 b 245 181 249 124 244 66 b 240 14 233 -42 211 -90 b 202 -111 189 -133 168 -146 b 143 -161 112 -156 85 -149 b 75 -146 63 -146 55 -152 b 49 -158 48 -166 56 -170 b 115 -196 188 -198 238 -154 b 284 -114 297 -48 306 9 b 327 148 303 297 252 428 z"},"&":{"x_min":0,"x_max":482,"ha":482,"o":"m 348 44 b 389 94 419 151 432 214 b 434 224 406 225 403 214 b 390 152 359 96 318 48 b 299 26 278 2 253 -18 b 218 10 191 48 173 91 b 215 134 259 177 296 225 b 332 270 375 332 374 392 b 373 456 309 481 253 469 b 130 443 102 280 118 176 b 121 156 126 135 133 115 b 111 92 90 69 72 43 b 56 21 45 -7 53 -35 b 69 -91 151 -89 195 -75 b 216 -69 235 -59 254 -46 b 290 -70 333 -84 381 -83 b 400 -83 400 -66 381 -66 b 340 -66 304 -53 272 -33 b 301 -10 326 18 348 44 z m 172 368 b 185 397 204 422 232 438 b 244 446 260 452 275 452 b 293 452 302 445 308 428 b 319 400 310 369 300 341 b 289 313 275 286 258 261 b 228 217 192 178 155 139 b 151 156 148 172 146 189 b 139 249 146 313 172 368 z m 157 -65 b 120 -69 87 -47 98 -6 b 106 23 131 48 152 69 b 172 30 200 -6 234 -33 b 211 -49 185 -61 157 -65 z"},"_":{"x_min":0,"x_max":314,"ha":314,"o":"m 263 -49 b 258 -36 237 -36 227 -37 b 195 -41 164 -46 132 -51 b 107 -55 73 -56 52 -71 b 46 -76 54 -82 58 -84 b 86 -91 119 -84 147 -81 b 179 -78 211 -74 242 -69 b 252 -68 268 -61 263 -49 z"},"v":{"x_min":0,"x_max":264,"ha":264,"o":"m 231 243 b 221 202 211 161 198 120 b 192 101 185 81 176 62 b 170 48 157 18 139 15 b 113 12 99 95 95 113 b 86 153 79 196 76 237 b 74 264 7 263 9 237 b 14 183 21 130 40 78 b 55 37 81 -15 134 -7 b 182 0 201 42 215 83 b 234 134 246 188 259 241 b 261 250 234 252 231 243 z"},"O":{"x_min":0,"x_max":624,"ha":624,"o":"m 531 -57 b 577 30 602 129 609 228 b 615 326 608 436 564 526 b 524 610 445 664 350 661 b 259 658 178 610 117 544 b 57 478 2 391 1 299 b 1 250 18 203 58 172 b 94 145 141 134 186 130 b 194 130 202 129 210 129 b 212 98 214 66 217 35 b 223 -16 229 -67 247 -116 b 261 -157 284 -200 331 -210 b 423 -230 494 -127 531 -57 z m 327 -165 b 314 -146 306 -123 300 -101 b 286 -52 281 -1 278 50 b 276 77 275 104 274 131 b 354 139 433 165 502 204 b 517 213 490 222 481 216 b 416 180 346 158 274 152 b 273 227 275 303 277 379 b 278 405 212 405 211 379 b 209 303 207 226 209 150 b 135 153 60 181 45 263 b 30 344 67 428 113 492 b 159 557 224 617 303 637 b 346 647 393 646 434 627 b 472 610 502 578 523 543 b 569 466 579 368 578 281 b 576 190 558 101 524 17 b 495 -55 451 -139 379 -176 b 358 -187 342 -185 327 -165 z"},"(":{"x_min":0,"x_max":363,"ha":363,"o":"m 309 -152 b 301 -146 288 -146 279 -149 b 255 -155 227 -161 204 -150 b 185 -142 171 -125 161 -106 b 135 -62 127 -8 122 42 b 109 158 125 276 157 387 b 165 415 173 444 186 470 b 199 497 222 529 255 526 b 269 525 282 540 263 542 b 234 545 205 537 180 523 b 154 509 135 480 123 453 b 93 390 75 320 63 252 b 50 182 47 110 54 39 b 60 -20 71 -89 109 -137 b 157 -197 241 -199 307 -170 b 315 -166 315 -158 309 -152 z"},"C":{"x_min":0,"x_max":494,"ha":494,"o":"m 512 333 b 513 343 486 344 484 333 b 476 266 460 201 435 138 b 411 78 379 17 337 -33 b 298 -79 230 -127 168 -95 b 118 -69 92 -7 81 45 b 67 113 70 182 79 251 b 88 316 103 380 127 441 b 149 499 178 558 220 604 b 258 646 320 684 372 640 b 424 596 424 509 406 449 b 396 418 381 388 360 363 b 342 342 291 288 268 331 b 263 341 234 338 240 327 b 253 301 286 294 312 301 b 345 309 371 336 391 361 b 433 416 454 487 444 555 b 435 623 391 677 320 682 b 246 687 182 644 138 588 b 89 525 58 451 38 374 b 18 296 5 214 9 133 b 12 59 32 -21 86 -75 b 136 -126 211 -136 276 -108 b 353 -76 400 3 436 74 b 476 155 502 243 512 333 z"},"W":{"x_min":0,"x_max":1008,"ha":1008,"o":"m 1186 743 b 1058 612 978 439 914 270 b 880 177 849 83 818 -11 b 811 -33 803 -56 796 -79 b 791 -95 785 -119 769 -128 b 734 -147 693 -63 682 -39 b 664 -2 652 39 639 79 b 632 98 626 117 619 136 b 612 153 606 174 592 188 b 583 198 568 203 554 201 b 537 197 529 184 522 169 b 502 131 487 90 472 50 b 445 -29 421 -116 365 -180 b 352 -196 343 -205 325 -192 b 307 -179 295 -160 285 -141 b 264 -101 249 -57 234 -14 b 199 88 172 193 144 298 b 131 349 117 401 102 452 b 85 505 69 558 37 604 b 30 615 -11 616 -3 598 b 17 553 26 503 38 456 b 50 406 62 356 73 306 b 96 209 119 112 150 18 b 165 -29 182 -75 203 -119 b 221 -158 247 -200 287 -219 b 329 -239 372 -228 400 -192 b 426 -158 444 -117 459 -77 b 491 4 510 94 553 170 b 554 173 559 184 561 184 b 565 185 571 173 573 171 b 578 162 582 152 586 142 b 594 122 601 101 608 80 b 622 38 634 -4 653 -44 b 669 -78 691 -118 723 -138 b 752 -156 788 -150 808 -123 b 836 -86 852 -37 869 6 b 889 55 907 105 927 154 b 968 259 1010 364 1063 464 b 1114 558 1173 644 1245 724 b 1269 749 1203 761 1186 743 z"},"A":{"x_min":0,"x_max":899,"ha":899,"o":"m 820 390 b 812 437 803 484 792 530 b 780 581 767 652 711 674 b 656 697 605 650 572 610 b 533 563 505 507 479 452 b 455 400 433 348 414 294 b 353 276 292 258 230 242 b 193 231 156 221 118 214 b 87 208 25 191 16 236 b 13 247 -14 245 -12 236 b -1 180 70 189 111 196 b 176 207 239 226 303 243 b 337 253 372 263 406 273 b 406 272 405 270 405 269 b 356 128 321 -17 292 -162 b 290 -172 316 -173 319 -162 b 352 -13 387 138 439 283 b 522 306 606 330 691 348 b 715 353 740 358 765 362 b 772 287 778 212 783 137 b 794 -8 802 -154 830 -296 b 833 -312 852 -316 866 -316 b 875 -316 904 -311 902 -296 b 878 -158 864 -20 851 119 b 843 203 835 287 823 371 b 834 373 846 374 857 375 b 873 377 915 387 911 360 b 910 348 942 347 945 358 b 960 416 855 396 820 390 z m 621 350 b 562 336 504 320 447 304 b 476 382 510 459 552 532 b 566 557 581 582 600 604 b 618 625 640 649 667 660 b 728 683 739 551 745 516 b 752 471 758 425 763 380 b 715 372 668 362 621 350 z"},"f":{"x_min":0,"x_max":171,"ha":171,"o":"m 216 103 b 175 76 133 49 91 24 b 89 63 87 102 88 141 b 90 198 98 256 95 313 b 93 339 38 337 33 313 b 21 254 20 191 20 130 b 20 71 24 12 39 -45 b 50 -91 75 -144 130 -141 b 175 -139 207 -88 204 -47 b 200 1 160 15 120 18 b 159 42 197 66 235 92 b 249 101 224 109 216 103 z m 166 -19 b 181 -41 177 -69 165 -91 b 160 -101 149 -117 137 -121 b 120 -127 115 -114 110 -101 b 100 -76 97 -50 95 -23 b 94 -15 93 -6 93 2 b 119 4 151 5 166 -19 z"},"Q":{"x_min":0,"x_max":624,"ha":624,"o":"m 564 526 b 524 610 445 664 350 661 b 259 658 178 610 117 544 b 57 478 2 391 1 299 b 1 250 18 203 58 172 b 94 145 141 134 186 130 b 194 130 202 129 210 129 b 212 98 214 66 217 35 b 223 -16 229 -67 247 -116 b 261 -157 284 -200 331 -210 b 338 -212 346 -213 353 -213 b 354 -223 354 -234 354 -244 b 356 -321 359 -398 365 -474 b 366 -495 418 -494 417 -474 b 413 -397 407 -321 403 -244 b 403 -230 402 -216 401 -202 b 460 -176 504 -108 531 -57 b 577 30 602 129 609 228 b 615 326 608 436 564 526 z m 578 281 b 576 190 558 101 524 17 b 498 -48 459 -122 399 -164 b 397 -114 393 -64 388 -14 b 387 -2 358 -2 357 -14 b 353 -70 352 -126 353 -182 b 344 -181 335 -176 327 -165 b 314 -146 306 -123 300 -101 b 286 -52 281 -1 278 50 b 276 77 275 104 274 131 b 354 139 433 165 502 204 b 517 213 490 222 481 216 b 416 180 346 158 274 152 b 273 227 275 303 277 379 b 278 405 212 405 211 379 b 209 303 207 226 209 150 b 135 153 60 181 45 263 b 30 344 67 428 113 492 b 159 557 224 617 303 637 b 346 647 393 646 434 627 b 472 610 502 578 523 543 b 569 466 579 368 578 281 z"},"w":{"x_min":0,"x_max":361,"ha":361,"o":"m 324 244 b 317 178 305 105 276 45 b 272 38 268 31 263 24 b 261 21 259 18 256 16 b 252 9 248 10 246 16 b 237 25 235 47 234 58 b 228 93 229 128 224 162 b 221 185 168 187 161 166 b 160 165 160 165 159 164 b 148 134 147 100 137 69 b 132 55 127 40 119 27 b 117 22 109 8 101 12 b 96 14 93 32 92 36 b 84 67 83 99 81 131 b 81 148 80 165 81 182 b 82 201 85 221 81 240 b 77 261 31 264 23 244 b 14 223 15 198 15 175 b 16 150 18 126 22 102 b 29 65 40 15 78 -2 b 132 -26 154 21 167 73 b 171 57 176 42 183 29 b 201 -4 240 -27 274 -2 b 306 23 317 70 327 107 b 339 152 348 198 352 244 b 353 255 325 256 324 244 z"},"-":{"x_min":0,"x_max":278,"ha":278,"o":"m 200 183 b 153 183 106 180 60 172 b 47 169 46 158 60 156 b 106 150 153 150 200 151 b 209 152 228 155 228 167 b 228 180 209 183 200 183 z"},"E":{"x_min":0,"x_max":714,"ha":714,"o":"m 671 89 b 689 113 706 145 699 177 b 693 204 671 222 646 233 b 611 247 570 245 533 241 b 500 237 466 229 434 218 b 438 242 442 267 445 292 b 470 299 494 308 518 317 b 528 321 539 329 531 340 b 524 351 505 353 494 351 b 479 349 465 346 451 342 b 455 381 458 420 460 459 b 462 513 466 574 434 621 b 407 662 362 677 315 672 b 264 667 214 643 171 615 b 128 587 88 552 56 511 b 23 469 -2 414 15 360 b 30 310 81 287 129 276 b 174 265 223 263 270 265 b 219 234 171 197 128 157 b 77 112 21 59 -1 -7 b -10 -36 -13 -69 6 -96 b 24 -121 54 -132 84 -137 b 154 -150 232 -138 301 -121 b 373 -104 442 -75 507 -39 b 567 -6 628 34 671 89 z m 193 305 b 156 309 110 315 87 348 b 59 388 73 441 95 480 b 138 558 208 622 295 648 b 319 655 346 658 370 647 b 391 636 407 616 416 594 b 436 548 431 493 429 444 b 427 407 424 371 419 334 b 402 329 385 323 368 316 b 311 304 252 300 193 305 z m 476 -28 b 367 -83 236 -123 113 -112 b 88 -110 62 -103 49 -79 b 37 -54 44 -23 55 1 b 80 56 124 99 167 138 b 228 194 296 243 370 275 b 384 278 399 281 413 284 b 410 257 406 231 402 204 b 373 191 345 176 319 157 b 299 143 251 114 275 86 b 281 78 308 83 299 94 b 283 115 348 155 398 179 b 392 146 386 113 381 80 b 379 69 409 68 411 80 b 418 118 424 157 431 195 b 437 198 442 200 445 201 b 473 212 502 219 532 223 b 562 227 597 230 626 220 b 655 209 673 183 669 151 b 665 122 644 96 624 74 b 582 30 530 -1 476 -28 z"},"s":{"x_min":0,"x_max":188,"ha":188,"o":"m 180 54 b 178 102 121 120 91 148 b 73 164 61 190 61 215 b 61 229 72 248 87 251 b 107 254 119 233 124 218 b 127 208 154 210 151 222 b 139 267 85 279 48 256 b 29 245 14 223 9 202 b 3 178 13 154 29 137 b 58 104 111 93 131 53 b 137 41 141 25 134 13 b 124 -6 105 -5 91 9 b 69 30 70 63 87 87 b 93 95 67 100 62 93 b 33 54 46 -2 95 -17 b 137 -29 183 10 180 54 z"},">":{"x_min":0,"x_max":276,"ha":276,"o":"m 225 152 b 219 176 186 182 166 185 b 136 189 102 189 73 198 b 65 201 40 192 55 185 b 73 176 88 168 108 164 b 118 161 129 160 139 158 b 146 157 158 157 164 153 b 180 142 139 123 131 119 b 110 108 87 99 66 90 b 56 86 46 77 55 67 b 64 57 84 57 95 61 b 125 72 155 84 182 99 b 199 109 231 128 225 152 z"},"l":{"x_min":0,"x_max":181,"ha":181,"o":"m 213 104 b 198 59 176 6 134 -19 b 90 -45 86 93 85 114 b 81 173 83 232 85 292 b 87 352 91 413 86 473 b 83 499 22 499 20 473 b 17 401 17 328 16 255 b 15 184 16 110 33 41 b 45 -12 92 -63 149 -34 b 199 -9 224 50 240 100 b 244 112 216 114 213 104 z"},"8":{"x_min":0,"x_max":377,"ha":377,"o":"m 262 379 b 206 444 65 422 51 331 b 44 283 75 242 108 211 b 109 210 110 209 111 208 b 110 207 108 206 108 205 b 82 162 66 106 64 56 b 63 10 75 -37 105 -72 b 156 -132 263 -143 308 -69 b 320 -49 328 -30 327 -6 b 325 18 316 41 305 62 b 296 78 287 93 276 107 b 285 159 294 211 294 263 b 294 303 289 348 262 379 z m 174 397 b 239 398 262 335 264 281 b 266 233 259 185 252 138 b 239 153 226 167 212 180 b 177 215 132 247 113 295 b 94 342 119 397 174 397 z m 257 -89 b 235 -104 209 -108 184 -100 b 130 -83 100 -28 94 25 b 88 80 103 143 129 191 b 160 163 191 135 219 103 b 251 65 282 21 285 -30 b 286 -55 278 -73 257 -89 z"},"\\":{"x_min":0,"x_max":362,"ha":362,"o":"m 311 -115 b 274 -16 238 84 204 185 b 188 235 170 285 152 334 b 143 358 133 382 123 406 b 113 430 103 455 87 476 b 82 488 50 487 50 473 b 51 449 61 424 69 401 b 77 376 85 350 93 325 b 109 275 124 225 139 175 b 169 73 198 -29 241 -126 b 251 -150 321 -145 311 -115 z"},"e":{"x_min":0,"x_max":201,"ha":201,"o":"m 167 99 b 164 81 159 62 150 45 b 143 32 119 -4 100 7 b 87 15 82 41 80 53 b 77 73 78 94 79 114 b 79 129 81 145 85 162 b 120 164 168 180 159 223 b 156 242 140 253 121 256 b 95 260 70 250 53 230 b -2 171 -10 -16 105 -12 b 162 -10 186 52 195 99 b 196 109 169 110 167 99 z m 110 223 b 116 229 120 237 127 227 b 131 220 131 210 128 202 b 121 185 105 180 89 178 b 94 194 101 210 110 223 z"},"b":{"x_min":0,"x_max":305,"ha":305,"o":"m 348 100 b 327 85 303 77 279 72 b 282 94 281 116 278 136 b 270 194 221 285 149 251 b 113 234 98 190 88 155 b 88 153 88 152 87 151 b 87 178 87 205 87 233 b 89 322 99 413 94 503 b 92 528 34 527 30 503 b 23 455 22 407 20 359 b 18 317 17 275 17 233 b 17 193 18 152 22 112 b 24 93 26 73 29 53 b 33 32 36 7 48 -10 b 54 -20 81 -24 86 -10 b 91 1 92 15 91 28 b 100 85 108 146 134 198 b 146 223 173 257 202 230 b 222 211 225 172 226 146 b 227 121 226 90 219 62 b 190 57 161 50 136 34 b 115 22 79 -9 96 -36 b 114 -65 163 -64 191 -54 b 239 -39 266 6 276 54 b 308 60 340 68 369 88 b 383 98 357 106 348 100 z m 180 -12 b 166 -25 113 -42 131 -5 b 143 20 173 33 198 40 b 203 41 209 42 214 44 b 207 22 196 2 180 -12 z"},"%":{"x_min":0,"x_max":577,"ha":577,"o":"m 512 446 b 499 451 479 450 468 440 b 382 355 307 260 236 162 b 201 114 167 64 135 14 b 119 -10 103 -35 88 -60 b 80 -73 72 -86 65 -100 b 59 -112 51 -124 50 -137 b 49 -147 70 -147 75 -143 b 99 -126 117 -98 134 -74 b 153 -50 170 -25 188 0 b 223 48 258 97 294 145 b 365 241 442 333 523 422 b 533 432 522 442 512 446 z m 187 219 b 212 229 223 253 231 277 b 240 305 244 336 238 365 b 232 392 216 419 189 429 b 166 437 140 432 120 418 b 92 398 78 350 90 315 b 89 259 122 193 187 219 z m 129 394 b 143 414 168 425 187 405 b 201 391 208 371 210 351 b 214 318 207 271 181 247 b 175 241 167 236 160 241 b 153 246 150 259 148 266 b 147 272 146 278 145 283 b 145 284 145 285 145 286 b 143 301 144 316 146 332 b 147 344 130 349 114 347 b 115 365 121 382 129 394 z m 452 166 b 430 174 403 169 384 155 b 355 134 342 86 354 51 b 353 -5 386 -71 451 -44 b 476 -35 487 -10 495 13 b 504 42 508 73 501 102 b 495 129 480 156 452 166 z m 445 -16 b 438 -22 431 -28 423 -22 b 417 -17 414 -5 412 3 b 411 9 410 14 409 20 b 409 21 409 21 409 22 b 407 37 408 53 409 68 b 411 80 393 85 378 84 b 379 101 385 118 393 130 b 406 150 431 161 451 142 b 465 128 472 107 474 88 b 477 55 471 7 445 -16 z"},"m":{"x_min":0,"x_max":416,"ha":416,"o":"m 445 81 b 435 56 425 31 409 10 b 404 4 395 -11 385 -3 b 382 0 381 8 380 11 b 376 24 375 36 374 49 b 368 101 369 161 339 207 b 329 223 318 234 297 231 b 277 228 263 209 253 192 b 238 167 229 138 221 110 b 218 132 213 154 206 174 b 198 202 180 245 143 232 b 110 221 97 169 88 139 b 86 134 85 129 84 124 b 84 156 87 187 86 218 b 85 244 27 242 22 218 b 14 180 17 137 20 99 b 22 64 25 16 48 -12 b 55 -20 78 -20 82 -9 b 87 0 88 10 88 20 b 100 80 111 146 142 198 b 145 204 150 218 159 211 b 164 207 163 193 164 187 b 165 172 165 157 165 142 b 164 107 164 71 166 36 b 168 12 228 13 227 36 b 227 37 227 37 227 37 b 245 87 254 142 281 188 b 286 197 306 226 307 199 b 308 185 307 170 308 156 b 308 128 306 100 308 72 b 310 48 314 18 331 0 b 345 -16 369 -27 390 -26 b 437 -23 458 39 473 76 b 477 88 449 90 445 81 z"},"#":{"x_min":0,"x_max":527,"ha":527,"o":"m 416 493 b 370 403 336 305 305 209 b 281 208 257 206 233 204 b 261 282 293 359 322 437 b 332 463 273 466 263 447 b 222 367 190 282 163 196 b 139 193 115 189 92 185 b 73 182 85 168 99 170 b 118 173 138 176 157 179 b 156 176 155 173 154 170 b 149 153 144 135 139 118 b 112 112 84 104 57 96 b 39 90 60 79 71 82 b 92 88 113 94 134 99 b 127 76 121 52 116 28 b 105 -18 90 -69 95 -116 b 96 -129 123 -129 129 -119 b 152 -76 162 -25 175 22 b 184 53 193 84 203 114 b 228 119 253 123 278 126 b 267 88 256 50 246 11 b 239 -15 232 -41 227 -68 b 221 -94 214 -123 220 -149 b 222 -158 244 -157 248 -151 b 265 -129 273 -102 281 -76 b 289 -49 297 -22 306 6 b 319 48 332 89 346 131 b 350 131 354 132 359 132 b 377 133 377 150 359 149 b 356 149 354 149 351 149 b 353 155 355 161 358 167 b 361 176 364 185 367 194 b 369 194 371 194 373 195 b 391 195 391 212 373 211 b 373 211 373 211 373 211 b 406 303 444 392 476 484 b 485 510 426 513 416 493 z m 293 174 b 290 163 287 153 284 143 b 259 140 234 137 209 133 b 212 143 215 153 219 163 b 221 171 224 179 227 187 b 251 189 275 191 299 192 b 297 186 295 180 293 174 z"},",":{"x_min":0,"x_max":185,"ha":185,"o":"m 79 37 b 72 20 65 3 59 -15 b 54 -30 46 -46 53 -61 b 56 -70 72 -69 79 -65 b 95 -55 102 -40 110 -23 b 119 -6 127 11 134 29 b 143 51 87 57 79 37 z"},"n":{"x_min":0,"x_max":280,"ha":280,"o":"m 317 102 b 307 74 293 43 272 21 b 268 17 255 2 248 7 b 245 9 244 16 243 18 b 239 30 237 43 235 55 b 227 111 235 177 199 224 b 188 240 171 250 152 243 b 129 235 117 205 108 184 b 100 164 93 143 87 121 b 85 157 86 192 83 227 b 82 252 23 252 20 227 b 16 186 18 144 22 102 b 25 66 27 17 49 -13 b 56 -22 81 -21 86 -10 b 90 -2 91 8 91 17 b 104 76 116 137 141 191 b 144 197 147 203 150 208 b 152 211 162 228 163 228 b 169 228 168 189 168 185 b 168 156 166 127 166 97 b 166 71 168 41 183 18 b 197 -3 221 -13 246 -13 b 300 -12 329 55 345 97 b 349 109 321 112 317 102 z"},"h":{"x_min":0,"x_max":315,"ha":315,"o":"m 354 80 b 340 52 323 19 299 -1 b 276 -20 273 9 271 25 b 268 40 267 55 266 70 b 263 104 261 139 252 172 b 245 197 236 229 213 246 b 165 280 128 203 112 169 b 103 149 95 128 88 107 b 88 109 88 111 88 112 b 87 152 86 192 87 233 b 89 322 99 413 94 503 b 92 528 34 527 30 503 b 23 455 22 407 20 359 b 18 317 17 275 17 233 b 17 193 18 152 22 112 b 24 93 26 73 29 53 b 33 32 36 7 48 -10 b 54 -20 81 -24 86 -10 b 89 -4 90 3 91 11 b 104 67 119 124 145 176 b 152 189 159 202 168 214 b 171 219 175 227 180 230 b 193 239 196 226 197 215 b 199 183 200 150 202 118 b 205 66 204 -10 268 -26 b 325 -40 362 34 381 76 b 386 87 358 90 354 80 z"},"z":{"x_min":0,"x_max":244,"ha":244,"o":"m 300 100 b 296 105 285 104 280 103 b 254 96 228 83 205 69 b 182 94 152 112 119 121 b 159 146 201 181 172 220 b 157 241 128 246 105 248 b 72 250 40 245 10 234 b -7 228 14 216 25 220 b 49 229 73 233 99 231 b 115 230 156 223 143 198 b 134 179 113 166 95 156 b 74 143 52 132 30 121 b 21 117 18 107 25 100 b 33 91 49 90 60 91 b 102 96 138 73 161 41 b 135 23 110 2 87 -20 b 61 -46 36 -74 17 -106 b 1 -132 -15 -168 11 -193 b 58 -239 153 -216 196 -176 b 248 -127 262 -49 237 17 b 232 30 225 43 217 54 b 242 69 268 82 295 89 b 301 90 303 95 300 100 z m 164 -138 b 151 -160 130 -180 107 -190 b 83 -201 40 -201 28 -172 b 18 -145 44 -108 60 -87 b 77 -63 98 -42 119 -22 b 135 -6 153 9 172 23 b 173 21 174 18 176 15 b 197 -34 193 -93 164 -138 z"},"B":{"x_min":0,"x_max":866,"ha":866,"o":"m 861 235 b 835 309 755 344 684 356 b 588 373 487 365 392 346 b 375 343 359 339 342 335 b 365 348 388 361 410 374 b 453 400 494 428 534 458 b 552 473 570 488 588 503 b 607 520 628 538 641 560 b 663 600 648 644 609 665 b 567 688 517 686 471 681 b 378 671 287 643 204 599 b 158 575 115 546 75 513 b 39 483 -11 444 -7 392 b -6 381 21 382 20 392 b 17 437 59 471 90 497 b 122 525 158 550 195 572 b 269 615 351 645 436 660 b 480 667 529 675 572 660 b 592 653 613 640 613 616 b 614 591 597 569 580 552 b 519 489 440 440 365 397 b 313 367 260 341 207 315 b 206 358 205 402 205 445 b 205 470 144 470 143 445 b 142 393 144 340 149 287 b 130 278 110 269 91 260 b 79 255 79 242 88 235 b 99 226 118 226 131 230 b 139 233 147 235 155 238 b 157 225 159 213 161 200 b 165 176 168 147 184 127 b 189 121 205 122 209 129 b 220 151 213 181 212 204 b 211 221 210 239 210 256 b 329 295 450 330 577 330 b 645 330 722 323 772 273 b 822 221 812 151 775 95 b 737 37 677 -6 618 -41 b 555 -78 489 -109 421 -135 b 351 -161 274 -188 198 -189 b 166 -189 126 -187 108 -156 b 92 -129 98 -92 109 -65 b 139 4 202 55 260 101 b 323 149 393 195 473 204 b 479 205 487 208 484 215 b 482 222 470 222 465 221 b 386 213 317 173 254 127 b 195 84 133 37 92 -26 b 56 -80 25 -168 100 -204 b 138 -222 182 -224 223 -221 b 268 -218 313 -208 357 -196 b 439 -174 518 -141 594 -102 b 665 -66 736 -24 792 33 b 843 85 886 160 861 235 z"},"K":{"x_min":0,"x_max":565,"ha":565,"o":"m 12 20 b 66 42 122 63 178 80 b 180 62 183 43 185 24 b 193 -37 199 -109 231 -163 b 238 -173 261 -176 269 -166 b 276 -157 277 -151 274 -140 b 273 -138 271 -136 269 -135 b 265 -112 261 -89 258 -66 b 254 -36 251 -6 249 24 b 246 49 245 73 243 97 b 328 117 415 122 502 98 b 510 96 524 95 530 102 b 535 109 530 116 522 118 b 428 143 334 136 241 116 b 239 144 238 172 236 200 b 369 315 496 438 616 566 b 638 590 660 615 675 644 b 680 652 681 660 671 665 b 663 669 651 668 646 661 b 642 656 645 653 650 651 b 644 637 607 595 602 589 b 583 569 563 549 544 530 b 500 488 456 447 412 406 b 353 352 293 299 234 245 b 228 371 229 497 231 623 b 232 648 168 649 166 623 b 155 489 158 355 166 221 b 167 210 168 198 168 187 b 160 179 151 171 143 164 b 92 119 41 75 -11 33 b -23 23 6 17 12 20 z m 172 146 b 173 130 175 115 176 99 b 141 89 105 77 71 64 b 105 91 138 118 172 146 z"},"R":{"x_min":0,"x_max":691,"ha":691,"o":"m 499 139 b 416 199 316 199 222 174 b 302 208 380 250 453 298 b 513 338 573 381 623 433 b 671 482 721 551 719 623 b 718 653 704 683 678 700 b 653 716 621 718 592 715 b 526 708 464 679 412 640 b 301 557 230 428 194 296 b 186 264 179 232 175 200 b 171 199 168 198 164 196 b 150 323 141 450 134 577 b 132 600 73 600 73 577 b 77 444 88 312 104 180 b 104 178 104 177 105 175 b 73 164 41 154 8 145 b -2 142 -12 133 -5 123 b 2 112 21 110 32 112 b 58 118 84 126 110 134 b 116 85 123 36 132 -13 b 142 -68 149 -134 184 -179 b 196 -194 249 -185 232 -163 b 216 -143 210 -116 205 -91 b 204 -85 203 -80 203 -74 b 199 -42 196 -10 195 23 b 193 65 195 107 199 149 b 242 163 286 174 332 173 b 386 172 437 149 474 110 b 551 31 564 -84 551 -189 b 548 -213 612 -215 616 -189 b 633 -68 601 63 499 139 z m 207 217 b 229 344 280 470 367 567 b 410 614 461 655 520 678 b 576 701 671 721 687 640 b 701 572 643 503 598 458 b 550 410 493 371 436 334 b 363 287 286 247 207 214 b 207 215 207 216 207 217 z"},"T":{"x_min":0,"x_max":735,"ha":735,"o":"m 1009 698 b 1012 699 1015 699 1019 699 b 1024 685 1067 689 1060 707 b 1052 730 1016 724 998 721 b 962 715 926 708 891 701 b 821 688 751 674 680 661 b 646 654 611 648 577 641 b 577 647 577 653 578 658 b 579 686 509 687 507 658 b 506 648 505 638 504 627 b 460 619 416 611 372 603 b 335 620 294 630 250 633 b 201 635 152 628 105 615 b 64 604 14 592 -12 556 b -14 554 -12 551 -11 550 b 5 531 32 534 54 536 b 89 541 123 545 158 550 b 228 561 297 572 367 584 b 398 569 428 548 454 523 b 468 510 482 495 494 479 b 490 388 489 296 493 204 b 496 129 501 55 512 -19 b 517 -57 523 -95 531 -133 b 538 -165 542 -205 567 -229 b 573 -235 591 -235 593 -225 b 594 -221 594 -218 594 -214 b 647 -38 658 165 598 342 b 589 367 578 392 566 415 b 568 485 572 554 576 624 b 646 637 717 651 789 663 b 828 670 868 676 908 683 b 927 686 946 689 965 692 b 976 693 987 695 998 696 b 1001 697 1005 698 1009 698 z m 254 583 b 214 576 173 570 132 564 b 113 561 94 559 75 556 b 60 554 33 546 19 555 b 43 583 92 594 126 602 b 167 613 209 618 250 615 b 280 614 310 607 337 597 b 310 592 282 587 254 583 z m 608 83 b 608 10 601 -64 586 -136 b 585 -130 585 -124 584 -119 b 581 -83 577 -47 574 -12 b 568 63 565 137 564 211 b 563 258 563 305 564 352 b 596 267 608 173 608 83 z m 496 514 b 467 544 434 570 398 590 b 433 596 468 603 502 610 b 500 578 497 546 496 514 z"},"P":{"x_min":0,"x_max":468,"ha":468,"o":"m 719 623 b 718 653 704 683 678 700 b 653 716 621 718 592 715 b 526 708 464 679 412 640 b 301 557 230 428 194 296 b 186 264 179 232 175 200 b 171 199 168 198 164 196 b 150 323 141 450 134 577 b 132 600 73 600 73 577 b 77 444 88 312 104 180 b 104 178 104 177 105 175 b 73 164 41 154 8 145 b -2 142 -12 133 -5 123 b 2 112 21 110 32 112 b 58 118 84 126 110 134 b 116 85 123 36 132 -13 b 142 -68 149 -134 184 -179 b 196 -194 249 -185 232 -163 b 216 -143 210 -116 205 -91 b 204 -85 203 -80 203 -74 b 199 -42 196 -10 195 23 b 193 71 195 118 200 166 b 289 201 374 246 453 298 b 513 338 573 381 623 433 b 671 482 721 551 719 623 z m 169 153 b 169 153 169 153 169 154 b 169 154 169 154 169 154 b 169 153 169 153 169 153 z m 598 458 b 550 410 493 371 436 334 b 363 287 286 247 207 214 b 207 215 207 216 207 217 b 229 344 280 470 367 567 b 410 614 461 655 520 678 b 576 701 671 721 687 640 b 701 572 643 503 598 458 z"},"|":{"x_min":0,"x_max":179,"ha":179,"o":"m 126 -1 b 124 46 122 93 122 141 b 121 237 123 332 125 428 b 126 454 61 455 58 428 b 49 332 48 234 52 137 b 54 90 57 42 62 -5 b 67 -53 71 -104 91 -149 b 95 -160 121 -158 123 -146 b 133 -99 127 -49 126 -1 z"},"t":{"x_min":0,"x_max":107,"ha":107,"o":"m 94 -7 b 83 -5 83 51 83 61 b 82 85 82 109 82 133 b 83 173 87 215 86 256 b 88 256 90 256 92 256 b 110 256 110 273 92 273 b 90 273 87 273 85 272 b 85 277 84 281 84 286 b 81 310 29 308 24 286 b 23 281 23 276 22 272 b 19 272 15 272 12 271 b -5 271 -5 255 12 255 b 15 255 17 255 20 255 b 18 234 18 213 18 192 b 18 161 18 130 21 98 b 25 54 34 -19 91 -22 b 104 -23 110 -9 94 -7 z"},"M":{"x_min":0,"x_max":628,"ha":628,"o":"m 573 443 b 570 500 566 556 560 613 b 557 644 554 704 509 703 b 470 703 445 646 431 617 b 407 570 387 521 369 472 b 348 416 332 359 316 302 b 307 274 299 245 291 217 b 290 213 289 209 288 205 b 287 213 286 221 285 229 b 282 261 281 294 277 326 b 274 357 269 387 262 417 b 258 437 256 469 231 473 b 207 477 191 455 182 435 b 168 407 160 376 151 346 b 133 284 120 221 110 157 b 108 144 106 130 105 117 b 100 159 96 201 94 244 b 88 360 91 474 100 590 b 102 616 33 617 30 590 b 17 473 16 354 25 237 b 30 179 37 122 47 65 b 52 37 57 10 63 -18 b 70 -44 75 -75 95 -95 b 102 -103 130 -104 131 -89 b 132 -77 128 -64 126 -52 b 126 -48 125 -44 125 -40 b 126 34 133 108 145 182 b 159 262 177 346 207 422 b 210 429 214 437 218 443 b 218 443 221 446 223 450 b 224 441 228 431 230 421 b 232 410 233 399 234 388 b 237 348 237 307 238 267 b 238 227 239 187 245 147 b 247 133 249 122 262 116 b 277 108 300 110 311 123 b 322 134 324 155 328 170 b 333 189 338 209 343 229 b 352 267 362 304 372 342 b 393 418 415 494 445 568 b 460 603 474 641 498 670 b 501 673 503 677 507 679 b 508 680 509 681 509 682 b 509 682 510 681 511 680 b 517 676 521 663 522 657 b 528 638 527 617 527 598 b 529 513 529 428 528 344 b 526 151 518 -43 531 -235 b 533 -262 601 -261 599 -235 b 584 -9 584 217 573 443 z"},"g":{"x_min":0,"x_max":273,"ha":273,"o":"m 246 237 b 246 263 182 263 181 237 b 181 237 181 237 181 237 b 180 236 179 235 179 233 b 179 230 179 227 178 223 b 162 239 140 244 118 241 b 61 234 32 179 19 128 b 8 84 4 12 58 -7 b 104 -23 142 12 162 51 b 171 66 177 83 183 100 b 185 64 188 29 190 -6 b 122 -18 60 -53 18 -108 b -20 -157 -45 -221 -31 -283 b -23 -322 -1 -356 35 -374 b 72 -392 117 -391 153 -371 b 233 -327 247 -207 253 -126 b 262 -5 247 116 246 237 z m 148 84 b 140 63 130 41 114 24 b 110 20 105 15 99 12 b 93 8 88 5 82 10 b 76 15 73 28 71 35 b 60 84 78 137 100 179 b 108 194 126 230 147 216 b 159 209 167 196 173 182 b 168 149 160 116 148 84 z m 194 -172 b 192 -213 190 -257 178 -298 b 165 -339 132 -373 85 -370 b 42 -368 11 -332 -1 -292 b -16 -238 1 -178 31 -132 b 68 -75 126 -36 191 -23 b 192 -27 192 -32 192 -37 b 195 -82 196 -127 194 -172 z"},"j":{"x_min":0,"x_max":123,"ha":123,"o":"m 21 237 b 16 156 25 75 30 -6 b -38 -18 -100 -53 -142 -108 b -180 -157 -205 -221 -191 -283 b -183 -322 -161 -356 -125 -374 b -88 -392 -43 -391 -7 -371 b 73 -327 87 -207 93 -126 b 102 -5 87 116 86 237 b 86 263 22 263 21 237 z m 34 -172 b 32 -213 30 -257 18 -298 b 5 -339 -28 -373 -75 -370 b -118 -368 -149 -332 -161 -292 b -176 -238 -159 -178 -129 -132 b -92 -75 -34 -36 31 -23 b 32 -27 32 -32 32 -37 b 35 -82 36 -127 34 -172 z m 38 310 b 39 309 41 309 42 308 b 50 307 60 308 64 313 b 77 332 151 416 94 425 b 78 427 65 420 55 407 b 54 408 54 408 54 409 b 46 425 26 432 10 422 b -8 412 -6 384 -2 366 b 4 342 16 322 38 310 z"},"i":{"x_min":0,"x_max":137,"ha":137,"o":"m 167 99 b 154 72 140 46 120 24 b 117 19 110 11 104 9 b 91 4 90 13 87 21 b 82 33 81 47 80 60 b 78 121 90 181 85 241 b 83 266 25 266 22 241 b 18 200 17 156 19 114 b 21 78 23 33 53 8 b 76 -11 106 -18 131 2 b 160 24 178 62 194 94 b 199 105 172 108 167 99 z m 42 310 b 43 309 44 309 46 308 b 54 307 64 308 68 313 b 81 332 155 416 98 425 b 82 427 69 420 59 407 b 58 408 58 408 58 409 b 50 425 30 432 14 422 b -4 412 -2 384 2 366 b 7 342 20 322 42 310 z"},"y":{"x_min":0,"x_max":300,"ha":300,"o":"m 273 237 b 273 262 214 263 208 240 b 208 239 207 239 207 238 b 202 198 196 158 184 119 b 174 85 158 43 128 22 b 120 16 117 13 111 21 b 105 28 102 35 99 43 b 92 61 88 81 85 100 b 79 141 78 181 77 222 b 77 247 16 247 15 222 b 11 159 21 -26 126 -1 b 167 9 189 54 203 89 b 205 95 207 101 209 107 b 212 70 215 32 217 -6 b 149 -18 87 -53 45 -108 b 7 -157 -18 -221 -4 -283 b 4 -322 26 -356 62 -374 b 99 -392 144 -391 180 -371 b 260 -327 274 -207 280 -126 b 289 -5 274 116 273 237 z m 221 -172 b 219 -213 217 -257 205 -298 b 192 -339 159 -373 112 -370 b 69 -368 38 -332 26 -292 b 11 -238 28 -178 58 -132 b 95 -75 153 -36 218 -23 b 219 -27 219 -32 219 -37 b 222 -82 223 -127 221 -172 z"},"@":{"x_min":0,"x_max":659,"ha":659,"o":"m 607 278 b 599 341 558 393 501 421 b 381 480 234 434 147 339 b 62 245 21 98 73 -21 b 102 -87 163 -126 234 -132 b 310 -139 385 -110 446 -67 b 468 -52 428 -41 415 -49 b 368 -77 317 -105 261 -105 b 210 -106 162 -84 135 -40 b 77 54 99 179 154 268 b 205 349 295 418 395 412 b 444 409 492 385 520 344 b 552 298 553 236 538 184 b 530 157 518 130 499 108 b 487 94 460 62 440 77 b 417 96 409 131 405 159 b 399 192 396 225 400 258 b 400 265 392 267 384 267 b 369 306 313 298 282 284 b 239 264 201 227 180 184 b 161 146 139 76 190 54 b 241 33 283 77 312 113 b 329 133 343 154 356 176 b 356 168 355 160 356 152 b 358 122 366 90 386 66 b 435 10 516 48 555 95 b 595 145 615 214 607 278 z m 303 145 b 290 128 276 113 260 100 b 254 94 238 79 229 80 b 232 80 227 82 226 84 b 222 90 221 95 220 101 b 216 141 239 187 260 218 b 276 242 341 317 358 257 b 359 254 362 253 366 252 b 347 215 328 178 303 145 z"},".":{"x_min":0,"x_max":175,"ha":175,"o":"m 69 34 b 64 20 59 5 55 -9 b 53 -15 52 -22 51 -28 b 49 -37 51 -40 56 -47 b 64 -55 85 -55 93 -47 b 109 -28 117 2 124 25 b 132 49 76 53 69 34 z"},"p":{"x_min":0,"x_max":260,"ha":260,"o":"m 295 109 b 277 108 258 109 240 110 b 245 150 235 194 212 224 b 198 244 177 255 154 243 b 129 230 117 195 109 170 b 101 147 94 122 89 97 b 87 145 87 195 89 243 b 90 269 23 269 22 243 b 20 186 19 130 23 73 b 24 45 27 17 31 -11 b 35 -38 39 -69 54 -93 b 60 -102 87 -106 92 -93 b 95 -83 96 -74 97 -64 b 97 -64 97 -64 97 -63 b 101 -5 109 53 122 111 b 128 140 136 169 150 197 b 153 204 166 235 178 227 b 185 221 185 195 186 187 b 189 160 187 134 179 109 b 156 106 129 99 118 78 b 107 57 117 37 137 29 b 164 17 196 25 214 48 b 225 61 233 77 237 94 b 256 93 276 92 295 93 b 312 94 313 110 295 109 z m 147 54 b 145 57 144 60 145 63 b 144 72 150 80 157 84 b 162 87 167 89 172 90 b 167 77 159 65 147 54 z"},"X":{"x_min":0,"x_max":434,"ha":434,"o":"m 579 -199 b 586 -197 591 -191 586 -184 b 580 -177 568 -179 560 -180 b 493 -197 429 -148 388 -100 b 344 -48 308 12 276 71 b 251 117 228 164 208 212 b 282 313 362 410 447 503 b 492 552 539 601 587 648 b 594 655 586 662 579 665 b 569 669 556 667 548 660 b 415 543 293 412 183 272 b 160 332 140 392 122 453 b 99 528 80 604 61 681 b 59 691 31 689 33 676 b 69 530 108 386 162 245 b 129 203 98 160 68 116 b 29 60 -8 2 -42 -58 b -55 -81 7 -88 19 -68 b 72 18 128 101 186 182 b 206 135 228 88 253 43 b 286 -18 322 -82 371 -132 b 425 -188 502 -222 579 -199 z"},"*":{"x_min":0,"x_max":282,"ha":282,"o":"m 219 312 b 203 313 187 313 171 313 b 186 327 201 341 217 354 b 228 363 200 369 192 362 b 179 351 166 340 153 328 b 152 348 151 368 149 387 b 148 398 119 398 120 387 b 122 370 123 353 124 336 b 110 347 95 359 80 369 b 73 374 50 367 59 360 b 80 345 100 329 120 311 b 106 310 92 309 78 307 b 68 305 58 304 52 296 b 43 286 69 281 75 288 b 80 295 100 294 107 294 b 111 295 116 295 120 295 b 103 277 86 258 71 238 b 63 227 88 223 94 230 b 104 242 115 254 125 266 b 125 252 125 238 125 223 b 124 212 153 212 154 223 b 155 242 155 260 155 279 b 165 268 176 257 186 246 b 193 238 220 244 210 254 b 197 269 183 283 168 297 b 185 297 202 296 219 295 b 237 294 236 310 219 312 z"},"Y":{"x_min":0,"x_max":689,"ha":689,"o":"m 645 71 b 665 73 652 88 637 87 b 625 86 613 84 601 83 b 616 132 626 182 633 232 b 651 354 646 477 627 598 b 621 637 610 705 560 706 b 511 707 496 644 483 608 b 443 499 413 384 352 284 b 323 238 287 189 241 161 b 219 149 199 144 177 158 b 154 171 139 194 128 217 b 75 322 72 452 70 568 b 69 600 68 631 67 663 b 67 682 23 681 21 663 b 5 550 8 427 32 315 b 42 266 57 214 88 174 b 118 136 167 113 215 118 b 265 124 303 157 332 195 b 363 234 388 276 409 320 b 456 419 482 525 521 627 b 526 640 542 696 565 685 b 575 681 580 662 583 653 b 588 640 592 625 594 611 b 605 554 606 495 605 437 b 603 326 588 213 556 107 b 553 97 549 87 546 77 b 455 67 363 56 274 35 b 192 17 39 -19 55 -133 b 68 -234 212 -249 291 -235 b 391 -217 474 -156 529 -73 b 558 -31 579 16 596 65 b 612 67 629 69 645 71 z m 404 -144 b 338 -198 241 -228 160 -193 b 136 -182 115 -165 101 -143 b 87 -120 93 -91 105 -70 b 135 -18 205 -1 259 13 b 350 37 445 49 540 59 b 511 -18 469 -92 404 -144 z"},"c":{"x_min":0,"x_max":224,"ha":224,"o":"m 189 96 b 183 77 177 58 168 41 b 158 22 140 -6 116 -5 b 81 -2 77 70 77 96 b 75 134 84 173 102 207 b 106 216 111 224 118 231 b 125 239 130 244 140 235 b 156 222 159 198 162 178 b 164 167 193 167 192 178 b 189 204 184 233 163 250 b 143 267 114 269 90 259 b 32 235 12 158 14 102 b 16 44 45 -17 109 -22 b 172 -28 201 42 215 92 b 218 104 191 106 189 96 z"},"!":{"x_min":0,"x_max":179,"ha":179,"o":"m 124 234 b 122 266 119 298 115 329 b 111 358 110 394 92 418 b 86 427 61 426 56 416 b 44 390 53 353 54 325 b 56 294 58 262 60 231 b 62 167 63 104 62 41 b 62 15 127 15 128 41 b 130 105 128 170 124 234 z m 86 -24 b 71 -58 76 -101 74 -137 b 73 -157 125 -158 126 -137 b 126 -101 131 -57 114 -24 b 110 -16 90 -16 86 -24 z"},"/":{"x_min":0,"x_max":470,"ha":470,"o":"m 364 448 b 298 362 242 267 189 173 b 163 125 138 78 114 29 b 90 -19 64 -69 50 -121 b 47 -134 72 -134 78 -128 b 116 -87 139 -34 165 15 b 190 63 216 110 243 157 b 298 253 360 343 418 435 b 431 455 374 463 364 448 z"},"[":{"x_min":0,"x_max":272,"ha":272,"o":"m 214 -148 b 205 -142 192 -142 182 -145 b 176 -147 169 -151 162 -152 b 161 -150 159 -148 158 -146 b 153 -134 148 -123 144 -111 b 136 -83 130 -56 126 -27 b 117 34 113 95 111 157 b 109 218 109 278 111 339 b 111 367 112 396 116 425 b 117 435 117 455 124 463 b 134 474 166 470 178 468 b 192 466 205 481 186 484 b 160 488 131 488 105 482 b 79 476 73 456 68 432 b 55 372 53 310 51 249 b 49 186 50 124 54 62 b 58 2 63 -59 81 -117 b 89 -143 100 -171 127 -182 b 158 -194 193 -186 218 -166 b 226 -160 220 -151 214 -148 z"},"6":{"x_min":0,"x_max":370,"ha":370,"o":"m 115 -84 b 151 -106 199 -105 238 -93 b 271 -83 303 -61 315 -27 b 327 6 318 43 289 65 b 237 102 164 94 109 61 b 107 122 123 184 147 238 b 162 271 180 302 201 331 b 211 346 222 360 235 373 b 244 383 269 406 284 402 b 295 398 316 409 298 416 b 261 429 223 397 195 375 b 162 348 135 314 112 277 b 68 202 38 106 55 18 b 62 -21 80 -62 115 -84 z m 254 61 b 284 47 297 14 287 -18 b 278 -49 250 -70 218 -75 b 149 -88 118 -22 111 36 b 150 69 206 83 254 61 z"},"r":{"x_min":0,"x_max":242,"ha":242,"o":"m 272 106 b 265 109 257 108 252 103 b 226 84 216 117 210 136 b 203 157 197 177 192 198 b 186 225 166 258 135 236 b 104 214 95 166 85 132 b 86 164 87 197 87 229 b 88 254 28 253 24 229 b 18 185 18 141 20 96 b 21 75 23 53 25 32 b 28 12 30 -14 47 -26 b 54 -32 67 -33 74 -26 b 87 -14 86 5 86 23 b 93 57 102 91 112 124 b 117 142 122 160 129 177 b 133 188 140 212 152 222 b 157 207 152 178 153 166 b 156 144 162 120 178 103 b 204 76 248 70 277 95 b 283 100 276 105 272 106 z"},"2":{"x_min":0,"x_max":384,"ha":384,"o":"m 58 -100 b 72 -110 89 -109 105 -107 b 130 -104 155 -100 179 -97 b 222 -92 270 -82 308 -108 b 317 -114 344 -106 329 -96 b 299 -75 262 -72 226 -74 b 206 -75 187 -78 167 -80 b 155 -81 143 -83 131 -84 b 129 -84 127 -85 125 -85 b 166 -59 203 -20 231 15 b 269 63 298 116 317 174 b 336 237 341 302 308 362 b 294 387 276 407 247 415 b 222 422 194 420 170 410 b 118 389 64 312 89 255 b 94 245 122 248 117 259 b 96 305 138 371 179 393 b 204 407 237 406 259 386 b 280 366 286 338 287 311 b 288 256 270 203 248 154 b 229 109 203 67 172 29 b 155 9 136 -11 116 -29 b 96 -47 71 -62 53 -81 b 47 -89 51 -95 58 -100 z"},"{":{"x_min":0,"x_max":360,"ha":360,"o":"m 308 -155 b 303 -149 290 -150 283 -152 b 244 -162 212 -155 194 -116 b 177 -80 172 -36 173 4 b 173 43 184 87 168 125 b 161 144 146 154 129 158 b 150 212 154 272 158 328 b 161 361 165 395 177 425 b 183 440 190 452 201 463 b 211 473 235 492 250 481 b 256 477 280 483 271 491 b 246 510 210 498 187 481 b 157 460 136 423 123 389 b 94 308 97 217 52 141 b 39 118 91 115 101 119 b 102 120 103 120 104 120 b 104 120 104 120 105 120 b 107 112 110 105 111 96 b 114 73 111 51 110 28 b 108 -14 111 -57 126 -97 b 136 -129 156 -159 187 -173 b 223 -190 265 -182 301 -169 b 308 -167 312 -162 308 -155 z"},"9":{"x_min":0,"x_max":438,"ha":438,"o":"m 169 386 b 119 361 69 312 54 256 b 39 205 67 152 121 143 b 175 134 226 176 259 214 b 283 242 301 274 316 308 b 316 282 317 257 319 232 b 321 180 325 129 316 77 b 309 36 291 -4 261 -33 b 248 -47 229 -61 209 -55 b 184 -49 169 -20 164 4 b 161 16 129 16 131 4 b 138 -50 183 -90 239 -86 b 294 -81 340 -37 363 12 b 389 66 390 128 385 187 b 383 220 378 253 373 286 b 370 303 367 320 364 336 b 360 356 352 375 350 394 b 349 405 324 406 320 396 b 302 345 282 294 251 249 b 236 227 218 207 197 191 b 179 177 149 155 128 175 b 90 212 115 272 142 308 b 157 329 175 347 195 364 b 210 377 255 408 272 381 b 276 373 303 375 298 385 b 276 428 201 402 169 386 z"}," ":{"x_min":0,"x_max":415,"ha":415,"o":""},"I":{"x_min":0,"x_max":260,"ha":260,"o":"m 296 -63 b 290 -57 277 -57 269 -60 b 242 -70 215 -82 189 -95 b 187 -70 184 -45 182 -20 b 178 41 174 102 171 163 b 164 286 161 410 162 533 b 163 585 164 636 165 688 b 200 695 235 699 271 699 b 289 700 289 717 271 716 b 235 716 200 712 165 706 b 166 719 166 733 166 746 b 167 772 101 773 99 746 b 98 727 97 708 96 689 b 61 678 27 665 -6 648 b -10 646 -11 642 -8 639 b -3 632 2 630 10 629 b 22 627 32 636 24 642 b 47 652 71 661 95 669 b 90 570 90 471 93 372 b 97 247 105 122 120 -2 b 125 -42 129 -83 136 -123 b 100 -143 64 -165 30 -187 b 15 -195 41 -203 50 -198 b 80 -181 110 -166 141 -151 b 145 -170 150 -190 155 -209 b 159 -221 193 -220 194 -206 b 194 -180 193 -153 191 -127 b 226 -111 260 -95 294 -78 b 302 -74 301 -68 296 -63 z"},"H":{"x_min":0,"x_max":737,"ha":737,"o":"m 190 227 b 197 107 204 -19 244 -133 b 249 -149 298 -147 294 -130 b 268 -12 262 110 257 231 b 256 245 256 259 256 273 b 260 275 265 277 270 280 b 369 329 469 379 573 417 b 578 419 583 421 588 422 b 589 365 592 307 596 250 b 600 178 605 105 616 34 b 622 -1 628 -35 637 -69 b 645 -102 653 -132 677 -157 b 683 -164 715 -162 708 -150 b 693 -122 691 -85 686 -55 b 681 -19 677 16 673 52 b 666 121 662 191 658 261 b 655 322 654 383 654 444 b 657 445 660 445 663 446 b 678 450 693 454 708 458 b 720 460 735 467 746 459 b 758 451 801 460 784 475 b 751 505 695 487 654 474 b 654 547 654 619 653 692 b 653 715 596 715 594 692 b 587 613 585 533 587 453 b 551 441 515 427 481 412 b 404 379 329 340 255 300 b 253 402 255 505 262 607 b 263 633 197 634 194 607 b 183 493 183 379 188 264 b 188 264 187 264 187 264 b 159 249 131 234 103 220 b 88 213 74 206 59 199 b 51 195 31 182 18 181 b 19 182 19 183 20 184 b 26 193 -1 196 -6 188 b -8 185 -10 182 -12 178 b -14 175 -11 172 -9 171 b 9 159 29 165 47 172 b 72 183 97 195 121 207 b 144 218 167 229 190 240 b 190 236 190 231 190 227 z"},"4":{"x_min":0,"x_max":453,"ha":453,"o":"m 87 78 b 110 77 133 88 150 103 b 175 124 194 151 210 180 b 244 186 279 190 313 197 b 315 176 316 156 318 135 b 321 93 324 50 331 8 b 337 -29 342 -78 376 -100 b 381 -104 398 -105 400 -97 b 404 -80 403 -65 400 -48 b 397 -27 395 -6 393 15 b 389 57 386 100 384 142 b 379 229 372 318 380 404 b 382 427 319 429 317 404 b 313 359 310 315 311 269 b 311 251 311 232 312 214 b 282 207 250 203 219 199 b 227 216 234 234 240 251 b 250 282 257 314 260 346 b 264 378 266 413 256 444 b 253 454 225 452 229 440 b 238 410 235 376 232 346 b 228 316 222 287 213 259 b 206 237 198 215 187 193 b 178 192 170 190 161 188 b 122 179 56 161 50 113 b 47 90 67 79 87 78 z m 79 110 b 80 124 91 137 102 145 b 123 161 151 169 177 174 b 161 148 142 124 119 107 b 108 99 78 84 79 110 z"},"D":{"x_min":0,"x_max":736,"ha":736,"o":"m 766 359 b 783 452 760 552 688 617 b 618 680 523 703 431 697 b 329 690 228 652 146 592 b 106 563 71 528 41 489 b 13 450 -10 402 7 353 b 11 343 40 346 35 358 b 7 436 92 519 146 564 b 208 615 282 651 360 669 b 446 689 545 688 621 637 b 693 589 723 507 720 423 b 716 337 677 255 630 184 b 586 116 531 57 467 7 b 404 -42 328 -85 247 -98 b 180 -108 66 -91 56 -5 b 50 42 83 87 113 121 b 136 146 161 169 189 190 b 189 185 190 180 191 175 b 195 140 199 104 210 71 b 215 55 257 57 258 74 b 258 110 252 147 250 182 b 249 198 247 214 246 230 b 276 248 306 264 337 279 b 358 289 379 298 401 307 b 425 317 452 331 478 326 b 486 325 502 326 505 335 b 509 343 497 349 490 350 b 442 355 399 331 356 311 b 318 293 281 275 245 255 b 244 264 244 274 243 284 b 241 354 242 424 240 494 b 239 517 185 516 183 494 b 174 423 176 351 180 280 b 182 259 184 238 186 218 b 124 176 63 123 32 57 b 13 17 11 -28 37 -64 b 62 -98 102 -119 142 -129 b 239 -153 343 -123 428 -75 b 508 -30 580 31 638 102 b 698 176 749 264 766 359 z"},"^":{"x_min":0,"x_max":227,"ha":227,"o":"m 177 314 b 166 353 171 438 110 433 b 82 431 71 407 63 383 b 55 359 46 330 52 304 b 55 294 76 296 81 301 b 94 314 102 331 109 347 b 111 333 114 319 119 305 b 125 284 184 288 177 314 z"},"0":{"x_min":0,"x_max":369,"ha":369,"o":"m 67 40 b 72 -8 88 -61 132 -87 b 177 -115 232 -100 265 -60 b 296 -22 309 31 315 79 b 322 136 319 195 309 251 b 300 299 286 351 256 391 b 231 425 190 443 148 430 b 101 415 75 369 61 324 b 45 270 44 209 73 159 b 67 120 63 80 67 40 z m 86 310 b 96 348 114 391 150 410 b 194 433 228 394 246 358 b 284 282 293 190 282 107 b 276 65 266 22 247 -16 b 238 -33 228 -48 213 -60 b 206 -66 196 -74 187 -74 b 176 -74 166 -66 159 -58 b 130 -26 127 24 128 65 b 128 80 129 94 130 109 b 151 101 174 98 198 104 b 213 108 198 121 188 118 b 167 113 148 118 133 129 b 137 158 142 187 147 216 b 151 239 90 240 85 216 b 84 213 84 211 83 208 b 75 242 78 277 86 310 z"},"F":{"x_min":0,"x_max":558,"ha":558,"o":"m 228 185 b 213 179 197 172 183 164 b 169 156 150 146 140 133 b 134 124 134 114 144 108 b 155 101 171 105 183 108 b 218 119 252 137 285 153 b 298 160 312 166 325 173 b 327 126 329 79 333 32 b 337 -29 338 -97 367 -152 b 371 -161 397 -160 396 -148 b 432 -59 483 122 388 181 b 388 188 388 195 388 202 b 394 204 400 207 406 210 b 427 218 447 226 468 233 b 478 237 487 240 497 242 b 506 245 524 253 533 249 b 540 246 552 244 559 250 b 565 256 561 261 554 264 b 528 273 500 263 475 256 b 445 247 417 236 388 224 b 388 228 388 233 388 238 b 389 345 396 451 404 558 b 456 577 509 595 563 610 b 595 619 628 628 661 636 b 678 639 694 643 711 645 b 726 648 751 655 766 648 b 776 644 789 642 799 648 b 807 653 809 663 799 668 b 774 679 750 678 723 674 b 693 671 663 664 633 657 b 576 643 520 626 464 607 b 445 600 425 593 406 586 b 407 600 408 615 409 629 b 411 654 347 655 344 629 b 341 606 339 582 336 559 b 272 533 208 503 147 470 b 92 440 39 406 -10 366 b -20 358 7 352 14 358 b 109 434 221 486 334 531 b 326 431 323 331 324 230 b 324 220 325 210 325 199 b 292 202 259 196 228 185 z m 194 135 b 198 138 203 141 207 144 b 228 157 251 166 276 172 b 253 161 230 151 208 141 b 203 139 198 137 194 135 z m 412 77 b 416 28 407 -24 393 -73 b 393 -66 393 -59 393 -52 b 391 -20 391 11 390 43 b 389 77 388 111 388 145 b 403 126 410 101 412 77 z"},"`":{"x_min":0,"x_max":161,"ha":161,"o":"m 110 342 b 101 356 102 378 101 395 b 100 416 100 438 101 460 b 101 480 51 480 51 460 b 50 432 49 405 56 378 b 60 357 67 339 88 332 b 93 330 116 332 110 342 z"},"k":{"x_min":0,"x_max":250,"ha":250,"o":"m 278 90 b 264 68 253 42 235 23 b 226 13 210 -2 195 7 b 186 12 181 26 176 34 b 158 66 142 103 108 113 b 134 123 158 136 180 154 b 202 172 245 221 206 245 b 172 265 133 231 114 206 b 105 193 95 179 87 164 b 87 187 87 210 87 233 b 89 322 99 413 94 503 b 92 528 34 527 30 503 b 23 455 22 407 20 359 b 18 317 17 275 17 233 b 17 193 18 152 22 112 b 24 93 26 73 29 53 b 33 32 36 7 48 -10 b 54 -20 81 -24 86 -10 b 94 8 91 30 90 50 b 90 62 89 75 89 87 b 93 83 97 78 100 74 b 108 62 114 49 121 37 b 136 12 158 -6 187 -12 b 251 -25 279 42 306 86 b 312 96 284 99 278 90 z m 125 177 b 132 189 177 253 191 224 b 205 197 156 162 138 150 b 126 142 113 136 101 130 b 107 147 116 163 125 177 z"},"u":{"x_min":0,"x_max":271,"ha":271,"o":"m 251 36 b 251 58 249 79 249 101 b 247 143 249 185 245 227 b 243 252 187 252 181 229 b 175 214 174 196 171 180 b 167 158 162 137 156 115 b 151 95 145 76 138 57 b 132 40 124 17 109 5 b 101 -1 99 3 95 12 b 91 21 88 30 87 39 b 83 58 82 77 81 96 b 81 140 88 184 88 228 b 88 253 28 252 25 228 b 18 175 12 120 24 67 b 33 26 56 -22 106 -17 b 148 -13 164 44 174 77 b 177 87 180 97 183 108 b 183 104 183 101 184 97 b 186 77 188 57 192 36 b 196 19 199 -5 214 -18 b 219 -23 230 -24 237 -21 b 240 -20 242 -19 244 -16 b 253 -2 251 21 251 36 z"},"]":{"x_min":0,"x_max":272,"ha":272,"o":"m 221 223 b 220 284 219 347 208 408 b 204 433 202 468 176 479 b 149 490 113 488 86 484 b 67 481 80 466 94 468 b 106 470 134 474 146 465 b 154 458 154 436 156 425 b 159 397 160 370 161 342 b 163 280 163 219 161 157 b 159 97 155 36 146 -24 b 142 -53 136 -82 127 -111 b 124 -122 121 -134 115 -144 b 114 -146 109 -151 110 -153 b 104 -152 94 -146 90 -145 b 80 -142 67 -142 58 -148 b 52 -151 46 -160 54 -166 b 75 -183 104 -191 131 -186 b 157 -181 173 -164 183 -140 b 205 -85 211 -23 216 36 b 221 98 223 161 221 223 z"},"U":{"x_min":0,"x_max":668,"ha":668,"o":"m 651 772 b 637 783 616 782 601 775 b 582 764 574 743 567 723 b 557 696 549 668 543 640 b 531 585 523 529 517 473 b 503 355 500 236 506 118 b 499 103 492 89 484 74 b 443 -5 390 -96 310 -143 b 271 -166 223 -173 188 -139 b 158 -109 141 -66 128 -26 b 96 79 88 195 88 305 b 89 363 92 421 98 478 b 101 506 104 534 108 562 b 110 576 112 590 114 604 b 115 610 117 616 117 622 b 118 626 119 631 119 635 b 119 636 119 636 119 636 b 120 636 120 637 121 637 b 121 638 121 638 122 638 b 125 642 126 645 124 649 b 118 667 84 665 74 653 b 66 645 64 630 61 619 b 57 603 53 587 49 571 b 36 513 28 456 23 397 b 13 283 17 166 39 53 b 57 -39 94 -164 198 -190 b 304 -216 387 -131 443 -53 b 468 -18 490 19 510 57 b 520 -64 536 -188 571 -304 b 577 -324 639 -321 634 -299 b 614 -200 591 -101 579 0 b 571 56 566 113 563 170 b 572 192 581 214 590 236 b 630 339 662 445 677 555 b 684 608 690 665 677 718 b 673 736 667 761 651 772 z m 654 635 b 649 499 612 365 560 238 b 559 259 559 281 559 303 b 559 404 564 505 575 606 b 578 631 582 656 587 681 b 591 701 596 739 613 755 b 636 776 647 720 650 705 b 654 682 655 658 654 635 z"},"o":{"x_min":0,"x_max":202,"ha":202,"o":"m 229 102 b 214 96 196 92 178 91 b 181 109 183 127 182 143 b 179 198 149 267 83 258 b 28 250 19 191 37 147 b 26 144 17 139 16 130 b 8 71 22 -24 103 -6 b 141 3 163 37 174 74 b 199 75 223 81 243 88 b 261 95 240 106 229 102 z m 132 47 b 126 35 118 22 106 16 b 89 7 82 26 79 39 b 74 58 74 78 75 98 b 95 85 119 77 144 75 b 141 65 137 56 132 47 z m 148 92 b 121 95 95 105 77 127 b 78 128 78 129 78 130 b 78 137 74 141 67 144 b 55 168 51 199 64 222 b 85 257 121 238 136 210 b 154 175 157 131 148 92 z"},"N":{"x_min":0,"x_max":469,"ha":469,"o":"m 310 652 b 326 660 330 645 334 633 b 338 618 339 601 341 586 b 347 528 344 470 343 412 b 341 291 342 170 354 49 b 360 -16 370 -81 387 -144 b 402 -199 424 -254 473 -286 b 486 -294 536 -286 516 -267 b 477 -229 463 -171 449 -120 b 434 -59 426 4 419 67 b 406 196 404 325 398 454 b 395 513 389 575 369 631 b 362 649 351 667 331 672 b 308 677 287 664 270 649 b 230 614 206 561 186 512 b 164 459 148 403 136 347 b 120 274 107 199 99 123 b 95 169 92 214 91 260 b 86 381 91 502 94 623 b 95 648 32 648 30 623 b 21 497 19 369 27 242 b 32 180 38 118 48 57 b 54 27 60 -2 67 -31 b 73 -55 79 -85 106 -92 b 111 -93 134 -93 128 -82 b 125 -75 122 -68 121 -60 b 118 53 132 166 151 277 b 170 386 199 500 258 594 b 271 615 288 641 310 652 z"},"+":{"x_min":0,"x_max":251,"ha":251,"o":"m 187 230 b 176 230 164 229 153 229 b 153 267 154 305 156 344 b 157 367 97 368 94 344 b 89 303 88 263 89 222 b 79 221 69 219 59 217 b 41 213 53 199 67 201 b 74 203 82 204 90 205 b 90 191 91 176 93 162 b 95 142 96 118 106 100 b 113 89 147 85 152 100 b 158 119 155 139 154 158 b 154 176 153 194 153 212 b 164 213 176 213 187 213 b 205 213 205 230 187 230 z"},"G":{"x_min":0,"x_max":688,"ha":688,"o":"m 727 429 b 747 433 734 448 719 446 b 687 441 661 420 638 396 b 637 403 635 410 634 417 b 625 455 604 537 548 516 b 524 508 511 480 500 459 b 486 431 476 402 464 374 b 440 316 414 258 385 201 b 357 145 325 90 289 38 b 255 -12 214 -67 163 -100 b 150 -109 137 -117 122 -122 b 107 -127 98 -124 88 -112 b 71 -91 65 -62 62 -36 b 54 27 62 93 74 155 b 96 263 138 368 201 458 b 233 503 270 544 311 580 b 355 617 406 654 464 662 b 480 664 498 664 511 654 b 525 644 532 627 525 611 b 521 600 547 597 551 606 b 575 660 506 684 465 684 b 405 684 349 656 301 622 b 212 561 141 475 91 379 b 39 281 8 170 1 59 b -3 4 -3 -67 31 -114 b 67 -163 128 -160 175 -129 b 223 -98 259 -52 292 -7 b 329 43 362 96 391 150 b 420 205 446 261 471 318 b 483 346 495 374 507 403 b 519 432 531 465 551 490 b 556 496 561 502 568 499 b 574 497 578 487 581 481 b 587 467 590 451 593 435 b 598 407 599 378 597 350 b 596 348 594 346 592 343 b 553 299 517 253 485 205 b 420 109 369 2 346 -112 b 340 -143 332 -172 340 -203 b 347 -231 371 -243 398 -243 b 459 -243 503 -184 530 -136 b 593 -28 626 102 639 226 b 644 271 646 317 642 362 b 647 366 651 371 655 376 b 675 397 697 424 727 429 z m 570 149 b 556 85 535 22 510 -38 b 487 -92 460 -147 418 -188 b 413 -193 408 -198 403 -202 b 401 -203 399 -203 397 -205 b 396 -204 395 -203 395 -202 b 393 -200 391 -198 389 -195 b 384 -187 382 -177 381 -167 b 378 -137 384 -105 390 -76 b 403 -19 424 37 450 89 b 488 168 538 240 594 307 b 589 254 581 201 570 149 z"},"q":{"x_min":0,"x_max":309,"ha":309,"o":"m 355 97 b 317 69 277 45 235 23 b 235 40 236 57 236 74 b 239 131 243 187 247 244 b 248 269 183 270 180 244 b 180 241 180 238 179 235 b 179 234 179 234 179 233 b 179 230 178 227 178 223 b 162 239 140 244 118 241 b 61 234 31 179 19 128 b 8 84 4 12 58 -7 b 104 -23 142 12 162 51 b 165 56 168 62 171 68 b 171 64 171 60 171 56 b 172 1 177 -59 209 -106 b 233 -142 276 -165 317 -137 b 353 -113 365 -54 339 -18 b 322 5 296 16 269 19 b 306 39 341 61 375 86 b 389 95 364 103 355 97 z m 148 84 b 139 63 129 41 114 24 b 109 20 105 15 99 12 b 93 8 88 5 82 10 b 76 15 73 28 71 35 b 60 84 78 137 100 179 b 108 194 125 230 147 216 b 159 209 167 196 173 182 b 168 149 160 116 148 84 z m 293 -7 b 314 -20 325 -42 324 -66 b 323 -90 309 -129 281 -132 b 252 -135 245 -97 242 -77 b 237 -52 235 -27 235 -1 b 254 4 275 4 293 -7 z"},"d":{"x_min":0,"x_max":267,"ha":267,"o":"m 272 -66 b 262 -72 254 -14 253 -8 b 249 15 247 39 245 62 b 241 110 240 157 240 205 b 240 253 241 301 244 348 b 246 398 248 449 253 498 b 255 521 194 523 191 498 b 185 439 178 379 177 319 b 176 288 176 256 176 225 b 160 239 139 244 118 241 b 61 234 31 179 19 128 b 8 84 4 12 58 -7 b 104 -23 142 12 162 51 b 170 66 177 82 182 98 b 186 56 192 14 205 -26 b 212 -49 223 -67 246 -78 b 262 -85 279 -86 293 -75 b 303 -67 278 -61 272 -66 z m 148 84 b 139 63 129 41 114 24 b 109 20 105 15 99 12 b 93 8 88 5 82 10 b 76 15 73 28 71 35 b 60 84 78 137 100 179 b 108 194 125 230 147 216 b 159 209 167 196 173 182 b 168 149 160 116 148 84 z"},"1":{"x_min":0,"x_max":323,"ha":323,"o":"m 78 328 b 90 361 150 435 177 375 b 196 334 194 281 194 237 b 193 130 180 23 182 -84 b 182 -87 183 -89 185 -91 b 176 -91 167 -92 158 -92 b 140 -92 140 -108 158 -108 b 193 -108 227 -107 262 -103 b 267 -103 274 -99 272 -93 b 270 -87 259 -86 254 -87 b 252 -87 249 -87 247 -88 b 247 -86 247 -85 248 -84 b 254 -18 255 49 255 115 b 254 180 255 248 240 311 b 230 354 206 411 156 415 b 107 420 66 374 50 332 b 46 321 74 318 78 328 z"},"5":{"x_min":0,"x_max":419,"ha":419,"o":"m 155 386 b 157 387 160 388 164 389 b 146 359 131 328 116 296 b 111 285 101 268 108 256 b 116 243 134 240 147 239 b 181 237 212 239 243 223 b 270 210 292 188 305 161 b 333 104 311 25 273 -23 b 236 -71 161 -83 130 -21 b 99 41 129 147 211 148 b 228 149 229 165 211 165 b 135 165 84 101 77 29 b 73 -4 81 -37 107 -61 b 134 -84 170 -94 205 -93 b 286 -90 339 -30 360 44 b 370 82 374 121 359 158 b 346 190 321 217 292 236 b 254 260 212 266 167 269 b 166 269 165 269 164 269 b 157 270 156 270 164 270 b 165 277 168 284 171 291 b 175 302 178 314 182 325 b 190 349 195 372 199 397 b 199 398 199 399 199 400 b 246 414 310 428 316 394 b 319 383 347 384 345 394 b 337 440 267 432 234 425 b 209 420 184 412 159 405 b 131 397 92 386 77 419 b 73 429 46 426 51 415 b 68 375 119 378 155 386 z"}}}
